<?xml version="1.0" standalone="no"?>
<!DOCTYPE svg PUBLIC "-//W3C//DTD SVG 20010904//EN"
 "http://www.w3.org/TR/2001/REC-SVG-20010904/DTD/svg10.dtd">
<svg version="1.0" xmlns="http://www.w3.org/2000/svg"
 width="472.000000pt" height="472.000000pt" viewBox="0 0 472.000000 472.000000"
 preserveAspectRatio="xMidYMid meet">
<metadata>
Created by potrace 1.11, written by Peter Selinger 2001-2013
</metadata>
<g transform="translate(0.000000,472.000000) scale(0.100000,-0.100000)"
fill="#000000" stroke="none">
<path d="M60 4713 c0 -5 18 -30 40 -58 22 -27 59 -75 81 -105 34 -45 474 -490
486 -490 3 0 83 -64 191 -155 39 -33 72 -68 72 -78 0 -10 7 -20 15 -23 8 -4
15 -17 15 -29 0 -41 18 -74 45 -81 14 -3 25 -10 25 -15 0 -5 6 -9 14 -9 8 0
46 49 85 109 80 124 224 289 285 326 87 52 224 114 281 127 84 19 451 8 550
-17 85 -21 161 -56 197 -89 15 -14 61 -46 104 -71 199 -118 378 -308 488 -520
20 -38 36 -65 36 -58 0 11 -44 105 -80 173 -19 35 -19 39 -2 135 19 113 20
301 2 392 -7 32 -23 84 -37 115 -23 52 -30 59 -67 69 -53 15 -328 5 -376 -14
-19 -7 -51 -23 -70 -35 -39 -25 -58 -25 -73 0 -28 43 101 203 209 260 106 55
255 99 359 106 l90 7 -70 6 c-67 5 -124 -1 -210 -23 -50 -13 -176 -74 -201
-97 -34 -31 -97 -70 -106 -65 -4 3 1 22 11 42 18 35 71 161 71 169 0 2 -81 3
-179 3 l-180 0 -3 -27 c-4 -37 -21 -39 -37 -3 l-13 31 -80 -3 c-73 -3 -81 -5
-93 -28 -34 -59 -65 -139 -73 -185 -7 -43 -11 -50 -30 -48 -12 2 -22 -1 -22
-6 0 -10 66 -24 79 -17 5 3 14 -1 21 -9 7 -8 16 -15 21 -15 13 0 85 -53 87
-64 1 -5 -71 -10 -165 -11 -156 -1 -173 -3 -243 -29 -41 -15 -81 -27 -88 -28
-7 -1 -11 -7 -8 -15 3 -7 0 -13 -7 -14 -35 -3 -46 -7 -97 -30 -30 -14 -75 -34
-100 -45 -24 -10 -73 -40 -109 -66 -36 -27 -73 -48 -82 -48 -19 0 -159 145
-195 201 -13 21 -28 40 -33 43 -12 8 -151 218 -176 265 -9 19 -20 61 -22 93
l-6 58 -313 0 c-173 0 -314 -3 -314 -7z m2117 -161 c2 -9 0 -28 -3 -42 l-7
-25 -7 27 c-8 28 -2 73 8 63 3 -3 7 -13 9 -23z m-19 -84 c-6 -18 -28 -21 -28
-4 0 9 7 16 16 16 9 0 14 -5 12 -12z m-25 -40 c5 -16 -2 -38 -13 -38 -4 0 -10
11 -12 25 -5 26 16 37 25 13z m-668 -236 c-3 -43 -16 -60 -26 -34 -5 14 -14
20 -24 16 -26 -10 -16 14 13 29 38 21 40 20 37 -11z"/>
<path d="M4090 4686 c0 -64 -74 -146 -185 -205 -22 -12 -34 -21 -27 -21 25 0
91 40 143 88 74 68 125 172 84 172 -10 0 -15 -10 -15 -34z"/>
<path d="M4264 4682 c67 -106 75 -249 21 -338 -38 -61 -108 -109 -181 -124
-118 -25 -341 36 -428 117 -45 42 -28 9 30 -58 31 -35 73 -89 94 -119 21 -30
50 -66 65 -80 l27 -25 -21 42 c-11 23 -42 68 -67 98 -25 31 -44 58 -42 61 2 2
42 -10 89 -27 71 -26 100 -31 184 -32 86 -2 106 1 142 21 93 49 155 131 168
224 13 90 -44 268 -88 276 -16 3 -15 -1 7 -36z"/>
<path d="M3053 4673 c9 -2 25 -2 35 0 9 3 1 5 -18 5 -19 0 -27 -2 -17 -5z"/>
<path d="M3238 4623 c7 -3 16 -2 19 1 4 3 -2 6 -13 5 -11 0 -14 -3 -6 -6z"/>
<path d="M3270 4615 c0 -3 30 -19 68 -36 37 -17 76 -35 87 -41 14 -6 12 -3 -5
11 -46 37 -150 83 -150 66z"/>
<path d="M3497 4489 c7 -7 15 -10 18 -7 3 3 -2 9 -12 12 -14 6 -15 5 -6 -5z"/>
<path d="M3549 4450 c13 -11 28 -20 33 -20 6 0 -1 9 -15 20 -33 26 -49 26 -18
0z"/>
<path d="M1657 4449 c8 -8 16 -8 30 0 16 9 14 10 -11 11 -22 0 -27 -3 -19 -11z"/>
<path d="M3847 4454 c-3 -4 -21 -10 -39 -14 -29 -7 -30 -8 -7 -9 14 -1 34 6
45 14 10 8 16 15 13 15 -3 0 -8 -3 -12 -6z"/>
<path d="M3708 4413 c12 -2 30 -2 40 0 9 3 -1 5 -23 4 -22 0 -30 -2 -17 -4z"/>
<path d="M1108 4383 c6 -2 18 -2 25 0 6 3 1 5 -13 5 -14 0 -19 -2 -12 -5z"/>
<path d="M1055 4363 l-30 -14 30 6 c31 7 41 12 34 19 -2 2 -17 -3 -34 -11z"/>
<path d="M968 4322 c-16 -9 -28 -20 -28 -25 0 -7 37 10 70 32 27 19 -12 13
-42 -7z"/>
<path d="M189 4307 c-51 -45 -128 -144 -158 -204 -24 -48 -31 -75 -31 -122 0
-58 1 -61 27 -67 86 -20 168 -45 187 -58 20 -12 30 -31 71 -131 7 -16 20 -61
30 -98 20 -74 21 -66 -28 -237 -13 -47 -32 -100 -41 -119 -19 -36 -212 -317
-233 -339 -7 -7 -13 -20 -13 -28 0 -12 4 -12 20 -2 16 11 23 9 47 -13 15 -15
51 -39 78 -54 59 -33 75 -51 75 -81 0 -32 47 -139 90 -206 l37 -56 -23 -13
c-25 -13 -32 -29 -13 -29 18 0 100 61 149 110 55 55 163 194 210 270 19 30 38
57 42 58 5 2 8 8 8 13 0 20 -21 -4 -106 -119 -87 -116 -202 -245 -237 -264
-14 -7 -22 -5 -33 9 -21 29 -17 39 19 39 27 0 43 12 102 73 38 39 86 95 106
124 33 47 36 54 23 71 -7 11 -17 16 -21 12 -4 -4 -1 -11 7 -16 11 -7 7 -15
-18 -41 -17 -18 -35 -29 -39 -24 -5 4 -2 10 5 12 6 3 12 11 12 18 0 7 6 15 13
18 8 3 6 10 -8 21 -13 10 -16 19 -10 23 6 5 30 33 55 63 62 77 64 80 111 130
44 48 88 128 108 200 7 25 17 56 22 70 4 14 13 44 19 68 15 59 28 53 22 -12
-3 -43 -1 -54 13 -60 25 -9 33 0 49 52 7 26 33 94 56 150 24 56 40 105 37 108
-14 15 -50 -12 -70 -52 -13 -28 -27 -44 -37 -42 -13 3 -15 22 -13 121 2 102 0
117 -12 107 -9 -8 -27 -10 -47 -6 -74 16 -120 18 -131 6 -7 -6 -7 -11 -2 -10
26 5 31 -5 34 -75 2 -60 -1 -76 -13 -81 -26 -10 -29 -41 -6 -72 26 -35 23 -75
-5 -81 -11 -2 -24 -8 -28 -15 -6 -7 -6 -4 -3 8 6 19 -9 46 -26 46 -5 0 -6 -9
-3 -20 3 -11 2 -20 -4 -20 -5 0 -13 -15 -17 -32 -3 -18 -15 -44 -25 -57 -24
-31 -16 -40 13 -15 l22 19 -20 -26 c-10 -15 -22 -25 -26 -22 -5 2 -8 -10 -8
-26 0 -24 -4 -31 -20 -31 -11 0 -20 -5 -20 -10 0 -6 -12 -15 -26 -20 -17 -7
-24 -15 -20 -25 3 -8 0 -15 -6 -15 -6 0 -21 -11 -33 -24 -13 -14 -25 -22 -29
-19 -3 3 -3 -10 1 -30 5 -32 2 -37 -25 -51 -38 -19 -42 -20 -42 -3 0 24 -25
66 -42 71 -38 9 -14 286 25 294 9 2 14 9 10 18 -3 8 1 14 8 15 8 0 27 17 44
36 l30 36 -26 -6 c-23 -6 -28 -2 -41 31 -20 52 -7 92 31 92 15 0 32 -5 39 -12
9 -9 17 -8 37 2 35 18 27 33 -23 44 -45 10 -53 20 -24 30 20 6 55 28 63 39 3
4 33 10 68 13 105 9 117 23 20 23 -60 1 -91 -3 -105 -14 -33 -25 -44 -18 -44
28 0 25 -8 54 -20 72 -11 17 -20 44 -20 61 0 117 -127 405 -178 404 -9 -1 -29
-11 -43 -23z m46 -314 c66 -104 80 -143 48 -143 -12 0 -40 39 -85 119 -38 65
-68 123 -68 129 0 32 46 -14 105 -105z m161 -313 c9 0 12 -4 9 -10 -12 -19
-35 -10 -34 13 0 12 3 16 6 10 2 -7 11 -13 19 -13z m-36 -215 c0 -8 -4 -15
-10 -15 -5 0 -10 7 -10 15 0 8 5 15 10 15 6 0 10 -7 10 -15z m450 -110 c0 -8
-4 -15 -10 -15 -5 0 -10 7 -10 15 0 8 5 15 10 15 6 0 10 -7 10 -15z m-180
-136 c0 -5 -4 -9 -10 -9 -5 0 -10 7 -10 16 0 8 5 12 10 9 6 -3 10 -10 10 -16z
m-404 -80 c-68 -259 -77 -282 -96 -263 -10 10 -8 20 47 203 15 51 26 78 47
109 15 25 17 5 2 -49z m444 36 c0 -7 8 -18 17 -24 10 -5 15 -13 11 -17 -10 -9
-38 14 -38 31 0 8 -6 16 -12 18 -8 3 -6 6 5 6 9 1 17 -6 17 -14z m-140 -350
c0 -8 -7 -15 -16 -15 -11 0 -14 -5 -10 -16 4 -11 2 -15 -7 -11 -8 3 -26 -6
-41 -20 -15 -14 -30 -23 -33 -20 -6 6 87 97 100 97 4 0 7 -7 7 -15z m-45 -95
c3 -6 -1 -7 -9 -4 -18 7 -21 14 -7 14 6 0 13 -4 16 -10z m-75 -20 c0 -5 -4
-10 -10 -10 -5 0 -10 5 -10 10 0 6 5 10 10 10 6 0 10 -4 10 -10z"/>
<path d="M4557 4087 c-3 -9 -1 -18 6 -21 7 -2 5 -5 -5 -6 -28 -4 -32 -5 -45
-13 -19 -12 -16 -37 5 -37 14 0 15 -2 2 -10 -10 -6 -11 -10 -2 -10 6 0 12 -4
12 -10 0 -5 -9 -10 -21 -10 -11 0 -18 4 -14 9 7 13 -26 31 -50 27 -10 -2 -21
-9 -23 -16 -3 -9 1 -11 14 -6 10 4 15 4 12 0 -4 -4 -3 -15 3 -26 16 -29 16
-121 1 -136 -9 -10 -16 -11 -26 -3 -7 6 -17 7 -22 3 -4 -4 -2 2 6 12 8 11 10
17 3 13 -7 -5 -17 9 -29 38 -9 25 -21 45 -25 45 -5 0 -9 11 -9 24 0 20 -5 23
-32 22 -28 0 -37 6 -58 38 -18 27 -26 34 -28 22 -4 -19 37 -75 57 -75 11 -1
11 -4 1 -16 -6 -8 -8 -20 -4 -26 5 -9 11 -7 21 6 12 18 13 17 14 -8 1 -26 4
-45 9 -49 6 -8 7 -38 1 -38 -4 0 -8 -11 -9 -25 -1 -16 3 -25 13 -25 18 0 20
-26 3 -34 -7 -4 -2 -4 10 -2 13 3 22 2 19 -1 -3 -3 3 -21 14 -40 11 -19 14
-31 8 -27 -8 4 -9 3 -5 -4 4 -7 13 -12 19 -12 18 0 107 -115 99 -127 -7 -10 1
-23 14 -23 8 0 12 -4 9 -10 -3 -5 -1 -10 4 -10 6 0 10 -5 9 -12 -2 -6 13 -15
33 -20 23 -6 57 -30 92 -63 l55 -54 1 263 c2 257 1 264 -19 269 -18 5 -20 0
-20 -47 0 -59 -16 -88 -60 -106 -24 -10 -36 -10 -60 0 -32 13 -55 44 -45 60 8
13 -5 61 -15 55 -10 -6 -7 21 3 31 4 4 4 18 0 32 -4 18 -2 23 6 18 6 -4 9 -12
5 -17 -8 -13 66 -1 84 14 9 7 16 7 24 -1 15 -15 58 -16 58 -1 0 6 -14 24 -30
41 -17 17 -28 33 -26 36 3 3 -4 10 -17 16 -13 7 -22 21 -23 36 0 14 -5 33 -11
44 -8 15 -11 16 -16 3z m150 -332 c0 -8 -4 -15 -9 -15 -10 0 -11 14 -1 23 9
10 10 9 10 -8z m-164 -52 c-7 -2 -19 -2 -25 0 -7 3 -2 5 12 5 14 0 19 -2 13
-5z m-80 -18 c4 -8 2 -17 -3 -20 -6 -4 -10 3 -10 14 0 25 6 27 13 6z m247
-271 c0 -8 -19 -13 -24 -6 -3 5 1 9 9 9 8 0 15 -2 15 -3z"/>
<path d="M3926 4008 c4 -7 40 -58 79 -113 81 -112 156 -226 237 -360 100 -165
118 -196 118 -206 0 -6 5 -7 12 -3 7 5 8 3 3 -5 -4 -8 10 -54 33 -109 48 -115
77 -196 128 -354 21 -65 39 -116 41 -115 2 2 -5 41 -16 88 -24 108 -83 281
-132 388 -21 46 -39 88 -39 94 0 5 17 -12 37 -39 61 -81 178 -216 237 -274 78
-76 76 -37 -2 45 -87 92 -148 166 -276 335 -64 85 -123 162 -130 171 -7 8 -19
29 -28 45 -62 124 -154 262 -246 372 -40 47 -74 71 -56 40z"/>
<path d="M4227 3943 c-4 -3 -7 -11 -7 -17 0 -6 5 -5 12 2 6 6 9 14 7 17 -3 3
-9 2 -12 -2z"/>
<path d="M4296 3881 c-4 -6 -7 -24 -6 -39 3 -40 0 -49 -10 -27 -8 19 -9 19 -9
-2 -1 -13 3 -23 7 -23 15 0 30 23 25 37 -3 8 0 19 7 23 9 5 9 13 3 25 -7 12
-12 14 -17 6z"/>
<path d="M2755 3772 c18 -12 80 -104 115 -168 33 -62 34 -62 51 -40 9 11 19
19 22 16 27 -29 113 -178 147 -256 60 -137 80 -220 80 -336 0 -87 -2 -98 -20
-108 -22 -12 -26 -40 -9 -57 8 -8 9 -21 3 -40 -5 -15 -7 -84 -3 -153 l5 -125
2 121 c2 107 5 129 28 180 25 57 26 65 21 199 -3 85 -11 163 -21 200 -19 68
-90 212 -116 235 -9 8 -19 20 -21 25 -30 74 -243 315 -279 315 -9 0 -11 -3 -5
-8z m119 -118 c23 -23 19 -40 -4 -19 -11 10 -20 22 -20 27 0 12 7 10 24 -8z"/>
<path d="M484 3705 c-16 -12 -17 -14 -3 -15 9 0 19 7 23 15 7 19 5 19 -20 0z"/>
<path d="M486 3579 c-10 -17 -16 -33 -13 -35 7 -8 47 37 47 53 0 22 -15 14
-34 -18z"/>
<path d="M3080 3451 c0 -7 8 -21 18 -30 11 -9 45 -54 77 -101 83 -122 118
-165 210 -255 125 -123 317 -250 450 -299 22 -8 85 -31 140 -51 55 -20 145
-49 200 -65 55 -16 145 -45 200 -63 106 -37 208 -57 190 -38 -6 6 -64 27 -130
47 -66 20 -124 39 -130 43 -20 15 -137 54 -171 57 -19 1 -87 21 -152 44 -332
119 -542 269 -744 533 -111 144 -157 197 -158 178z"/>
<path d="M2901 3434 c0 -11 3 -14 6 -6 3 7 2 16 -1 19 -3 4 -6 -2 -5 -13z"/>
<path d="M4574 3347 c14 -18 37 -43 51 -55 14 -12 23 -27 20 -32 -4 -6 1 -13
9 -16 9 -3 13 -10 10 -15 -3 -5 0 -9 6 -9 6 0 9 -4 5 -9 -3 -5 -1 -12 4 -15
10 -7 21 16 21 43 0 15 -60 82 -114 129 -29 24 -37 11 -12 -21z"/>
<path d="M856 3206 c-9 -14 -22 -36 -30 -49 -9 -15 -11 -29 -6 -38 7 -10 16 2
36 44 27 61 27 88 0 43z"/>
<path d="M2690 3183 c0 -24 4 -43 9 -43 5 0 11 -8 14 -17 2 -10 2 2 -1 27 -6
64 -21 86 -22 33z"/>
<path d="M3062 3185 c-1 -11 8 -45 18 -75 l20 -55 -6 45 c-3 24 -9 49 -13 55
-5 5 -11 19 -14 30 l-5 20 0 -20z"/>
<path d="M4711 3174 c0 -11 3 -14 6 -6 3 7 2 16 -1 19 -3 4 -6 -2 -5 -13z"/>
<path d="M2990 3088 c0 -13 4 -28 9 -33 27 -28 61 -295 47 -370 -8 -39 -8 -39
-20 -16 -12 21 -14 14 -19 -60 -3 -46 -11 -100 -17 -119 -6 -19 -15 -51 -21
-70 -21 -70 -65 -145 -117 -198 -30 -29 -56 -51 -60 -48 -3 3 2 14 10 23 15
17 54 87 70 125 5 12 3 15 -8 11 -7 -3 -14 -1 -14 3 0 36 -32 209 -41 222 -8
14 -9 13 -4 -8 3 -14 10 -62 15 -107 5 -46 12 -87 15 -93 17 -28 -35 -72 -90
-74 -5 -1 -11 -5 -12 -11 -3 -12 58 -7 71 6 6 5 15 9 20 9 20 -1 -28 -30 -48
-30 -21 -1 -21 -1 0 -13 19 -11 21 -33 5 -47 -25 -21 -63 -70 -55 -70 6 0 36
15 67 34 30 19 58 31 61 28 3 -3 6 0 6 6 0 7 8 20 18 30 28 28 82 112 82 128
0 7 4 14 8 14 4 0 18 39 31 88 12 48 32 121 43 162 12 41 25 93 29 115 8 45
-8 225 -22 240 -5 5 -9 18 -9 30 0 11 -7 33 -15 49 -8 15 -15 34 -15 42 0 7
-4 16 -10 19 -6 3 -10 -4 -10 -17z"/>
<path d="M2724 3053 c4 -16 11 -44 16 -63 32 -124 34 -139 14 -162 -11 -11
-60 -40 -110 -63 -120 -57 -159 -99 -214 -234 -15 -38 -19 -56 -11 -64 6 -6
11 -21 11 -34 0 -35 21 -73 45 -79 39 -10 106 76 118 151 3 17 9 38 12 48 5
13 2 17 -13 17 -12 0 -24 5 -27 11 -11 16 4 59 20 59 8 0 15 6 15 14 0 16 59
56 84 56 21 0 23 -16 11 -135 l-6 -70 29 67 c16 36 39 80 51 96 11 17 21 33
21 37 0 4 14 27 31 52 16 25 29 54 27 65 -3 19 -3 19 -27 -1 -13 -12 -26 -19
-28 -17 -6 6 9 36 18 36 5 0 9 9 9 20 0 14 -6 20 -17 18 -11 -2 -19 7 -25 32
-4 19 -12 49 -17 65 -5 17 -12 47 -16 68 -3 20 -11 37 -17 37 -6 0 -8 -10 -4
-27z m-180 -510 c4 -5 13 -8 19 -8 23 0 19 -53 -7 -94 -39 -61 -86 -79 -106
-41 -14 27 -5 56 20 63 18 5 29 22 44 70 6 18 18 22 30 10z"/>
<path d="M3107 3033 c-2 -5 0 -21 4 -38 7 -29 7 -29 8 8 1 35 -3 46 -12 30z"/>
<path d="M3123 2925 c0 -22 2 -30 4 -17 2 12 2 30 0 40 -3 9 -5 -1 -4 -23z"/>
<path d="M4476 2855 c3 -22 10 -44 15 -49 5 -6 9 -21 9 -35 1 -29 29 -87 30
-60 0 15 -24 95 -40 134 -5 11 -11 27 -14 35 -3 8 -3 -3 0 -25z"/>
<path d="M1637 2761 c-9 -16 -17 -33 -17 -38 0 -4 9 7 21 26 11 18 18 35 17
37 -2 2 -12 -10 -21 -25z"/>
<path d="M772 2730 c0 -14 2 -19 5 -12 2 6 2 18 0 25 -3 6 -5 1 -5 -13z"/>
<path d="M672 2599 c-55 -74 -105 -120 -184 -167 -66 -41 -121 -54 -268 -66
-25 -2 0 -2 55 -1 55 2 114 6 130 9 27 6 36 1 87 -47 51 -48 167 -127 188
-127 4 0 15 -11 24 -25 9 -14 21 -25 26 -25 19 0 10 38 -13 53 -24 15 -58 76
-80 143 -10 31 -11 51 -2 90 19 80 81 184 111 184 7 0 14 7 14 15 0 18 -16 20
-26 4 -5 -8 -9 -8 -14 1 -5 8 -21 -5 -48 -41z m-54 -135 c-12 -44 -1 -148 19
-187 8 -16 12 -31 10 -33 -2 -3 -40 22 -83 54 -76 56 -111 89 -103 95 2 2 36
22 76 45 40 23 75 47 78 52 12 19 13 9 3 -26z"/>
<path d="M4530 2647 c0 -3 7 -18 15 -33 l16 -29 -3 29 c-2 16 -9 31 -15 34 -7
2 -13 2 -13 -1z"/>
<path d="M4587 2630 c8 -29 25 -37 21 -9 -1 12 -8 24 -15 26 -7 3 -9 -3 -6
-17z"/>
<path d="M2200 2615 c-7 -9 -8 -15 -2 -15 5 0 12 7 16 15 3 8 4 15 2 15 -2 0
-9 -7 -16 -15z"/>
<path d="M2792 2605 c0 -16 2 -22 5 -12 2 9 2 23 0 30 -3 6 -5 -1 -5 -18z"/>
<path d="M1483 2565 c-15 -13 -23 -25 -17 -25 6 0 21 11 34 25 30 32 19 32
-17 0z"/>
<path d="M1958 2553 c-10 -2 -18 -9 -18 -14 0 -6 8 -5 20 1 11 6 20 13 20 15
0 3 -1 4 -2 4 -2 -1 -11 -3 -20 -6z"/>
<path d="M1970 2500 c0 -5 5 -10 11 -10 5 0 7 5 4 10 -3 6 -8 10 -11 10 -2 0
-4 -4 -4 -10z"/>
<path d="M50 2491 c0 -21 40 -81 55 -81 7 0 18 -7 25 -15 7 -8 20 -15 29 -15
9 0 0 11 -21 25 -21 14 -49 42 -63 63 -14 20 -25 31 -25 23z"/>
<path d="M1790 2455 c-10 -12 -9 -15 8 -15 11 0 26 -2 34 -3 7 -2 10 -2 6 0
-5 3 -8 11 -8 19 0 18 -24 18 -40 -1z"/>
<path d="M2902 2445 c0 -16 2 -22 5 -12 2 9 2 23 0 30 -3 6 -5 -1 -5 -18z"/>
<path d="M255 2440 c-13 -6 -15 -9 -5 -9 8 0 22 4 30 9 18 12 2 12 -25 0z"/>
<path d="M1896 2415 c-17 -13 -61 -31 -100 -40 -98 -23 -159 -49 -244 -106
-46 -31 -85 -49 -103 -49 -37 0 -38 -18 -1 -22 l27 -3 -36 -37 c-21 -21 -46
-38 -58 -38 -12 0 -21 -5 -21 -11 0 -8 13 -9 40 -5 26 4 40 2 40 -5 0 -6 27
14 61 44 64 58 153 109 256 147 48 17 78 21 128 18 57 -3 63 -2 52 12 -27 34
-38 62 -29 73 9 12 24 47 19 47 -1 -1 -15 -12 -31 -25z"/>
<path d="M3168 2411 c-73 -6 -78 -8 -116 -46 -22 -22 -53 -50 -69 -62 -33 -24
-73 -99 -73 -135 0 -27 49 -115 79 -142 11 -11 21 -22 21 -26 0 -3 -36 -13
-81 -20 -44 -8 -82 -17 -84 -20 -2 -4 41 -5 96 -2 58 2 110 0 122 -6 27 -12
87 -38 107 -45 9 -3 4 -6 -11 -6 -14 -1 -49 -8 -78 -17 -57 -16 -67 -31 -74
-103 -3 -40 -38 -81 -69 -81 -10 0 -10 -2 2 -10 21 -13 -12 -24 -55 -17 -18 3
-36 3 -38 0 -10 -9 5 -33 19 -33 8 0 14 -4 14 -10 0 -5 -7 -10 -17 -10 -15 0
-15 -2 0 -17 14 -16 14 -20 -3 -40 -23 -29 -30 -28 -56 5 -31 39 -40 88 -18
100 15 8 14 10 -4 14 -16 5 -21 -1 -26 -31 -8 -47 -6 -202 3 -316 8 -100 2
-128 -30 -145 -19 -11 -30 -3 -114 79 -93 92 -150 127 -190 117 -22 -6 -28 10
-50 122 -4 17 -11 32 -17 32 -6 0 -7 -7 -3 -17 31 -74 31 -159 -1 -219 -23
-43 -24 -49 -10 -60 23 -16 20 -24 -14 -36 -22 -7 -33 -19 -37 -38 -7 -39 -57
-97 -103 -120 -21 -11 -45 -28 -52 -38 -21 -29 -34 -33 -64 -17 -47 24 -54 20
-52 -32 1 -37 2 -40 5 -15 2 17 9 32 15 32 7 0 33 -18 59 -40 26 -22 51 -40
56 -40 4 0 20 -11 34 -24 16 -14 42 -26 63 -28 35 -3 35 -3 11 -15 -21 -9 -30
-8 -61 14 l-37 24 8 -23 c4 -13 9 -36 12 -53 3 -16 12 -34 19 -38 8 -4 14 -16
14 -26 0 -10 7 -24 15 -31 8 -7 15 -18 15 -24 0 -6 12 -33 25 -61 39 -79 32
-83 -49 -29 -46 30 -57 34 -75 24 -12 -6 -25 -9 -30 -6 -5 3 -16 -3 -26 -14
-27 -30 -35 -25 -35 23 0 44 -24 92 -41 81 -6 -3 -6 -10 -1 -17 5 -7 13 -37
16 -68 l7 -55 -38 -20 c-21 -10 -46 -27 -56 -36 -9 -10 -23 -15 -31 -12 -19 7
-8 49 21 79 18 17 21 25 11 25 -8 0 -23 8 -34 18 -21 19 -40 23 -96 24 -21 0
-38 5 -38 10 0 6 -6 8 -14 5 -8 -3 -24 5 -37 19 -18 19 -19 24 -6 24 9 0 19
-4 22 -10 3 -5 15 -15 26 -20 15 -8 19 -7 19 3 0 22 -67 69 -101 71 -40 3 -54
18 -40 44 15 28 34 33 140 39 l93 5 -7 -30 c-5 -24 -2 -33 17 -46 12 -9 29
-16 38 -16 9 0 4 7 -12 18 -16 9 -28 22 -28 28 0 14 41 30 94 38 48 7 56 14
49 48 -4 24 -8 25 -28 16 -17 -8 -28 -6 -47 6 -14 9 -53 27 -88 41 -53 21 -81
25 -162 25 -114 0 -139 -9 -190 -70 l-34 -41 -104 15 c-58 8 -139 16 -180 19
-72 4 -73 4 -20 -5 30 -5 69 -13 86 -18 17 -6 43 -10 59 -10 16 0 55 -5 87
-12 63 -13 69 -23 43 -68 -8 -14 -14 -51 -15 -82 0 -50 4 -60 31 -87 17 -17
56 -43 86 -58 30 -15 64 -39 76 -55 12 -15 38 -48 57 -73 69 -92 277 -265 318
-265 10 0 37 16 59 35 l41 35 -9 -35 c-6 -19 -9 -65 -7 -102 2 -55 6 -68 21
-71 9 -2 17 2 17 10 0 7 21 67 46 133 25 66 63 172 86 235 23 63 61 162 85
220 51 119 84 213 113 317 25 90 51 121 141 168 68 36 136 86 208 154 29 27
39 31 65 25 48 -11 162 -6 257 12 83 16 86 16 127 -5 22 -11 43 -25 47 -31 3
-5 17 -10 31 -10 65 0 85 -51 38 -95 -15 -14 -32 -25 -38 -26 -6 0 -58 -2
-116 -2 -64 -1 -120 -8 -142 -17 -38 -14 -38 -14 -38 -71 0 -56 0 -56 70 -129
38 -40 67 -77 64 -82 -6 -9 83 -6 226 8 46 5 73 0 160 -30 152 -52 204 -82
270 -152 74 -80 96 -138 38 -100 -14 9 -28 13 -31 9 -4 -3 -7 -2 -7 3 0 12
-69 38 -77 30 -4 -3 -1 -6 6 -6 6 0 24 -11 38 -24 14 -13 36 -30 49 -36 26
-15 72 -6 80 15 6 15 -35 79 -84 132 -17 18 -27 35 -23 37 10 6 89 -17 130
-38 18 -10 31 -12 31 -6 0 10 -31 26 -104 53 l-38 14 59 16 c64 18 123 14 123
-9 0 -8 -5 -14 -11 -14 -6 0 -1 -15 13 -32 47 -65 57 -117 13 -68 -35 39 -36
19 -1 -22 20 -23 36 -50 36 -59 0 -19 17 -35 27 -25 4 4 2 11 -5 18 -6 6 -9
23 -6 37 3 15 -3 42 -16 66 -11 21 -20 50 -20 63 0 17 -4 22 -14 19 -9 -4 -12
0 -9 12 2 10 -3 25 -11 34 -19 19 -19 19 64 46 36 12 74 26 85 31 11 5 70 25
130 45 61 21 114 41 120 46 5 5 17 9 26 9 10 0 31 11 46 24 l28 24 4 252 3
252 42 -7 c22 -4 55 -9 73 -12 18 -3 38 -11 44 -19 13 -16 39 -19 39 -5 0 20
-30 38 -85 50 -41 9 -54 16 -44 22 8 5 21 9 29 9 8 0 34 10 58 22 31 17 42 29
42 47 0 18 -4 22 -17 16 -43 -18 -88 -26 -114 -23 -16 3 -30 0 -33 -6 -2 -7
-7 -8 -14 -1 -14 13 -24 199 -12 230 5 14 7 39 3 56 -7 36 -52 61 -118 64 -22
1 -54 2 -72 3 -42 2 -35 19 22 54 24 14 58 45 74 69 29 40 31 47 31 136 0 82
-3 98 -25 133 -21 33 -31 39 -67 44 -24 3 -83 10 -133 15 -105 12 -151 19
-201 27 -45 8 -148 -13 -177 -37 -27 -21 -72 -110 -81 -160 -3 -20 -15 -44
-25 -53 -18 -17 -19 -15 -26 34 -4 29 -13 64 -21 78 -8 15 -14 32 -14 38 0 18
-80 94 -103 98 -39 8 -349 13 -429 7z m440 -40 c34 -18 69 -67 79 -108 12 -46
8 -57 -24 -67 -28 -9 -37 -37 -22 -70 7 -14 9 -29 5 -34 -11 -10 -35 26 -47
71 -11 41 -36 59 -50 36 -6 -11 -17 -7 -54 19 -25 17 -50 32 -55 32 -5 0 -30
11 -56 25 -26 14 -59 25 -74 25 -24 0 -140 72 -140 87 0 9 419 -6 438 -16z
m547 -8 c35 -7 27 -9 -55 -15 -52 -3 -113 -10 -136 -15 -50 -12 -104 -51 -104
-75 0 -10 -7 -18 -15 -18 -21 0 -19 22 6 70 35 67 49 73 164 66 55 -3 118 -9
140 -13z m205 -67 c66 -54 109 -180 55 -160 -8 4 -13 10 -10 14 18 29 -47 64
-69 37 -6 -8 -19 -17 -28 -20 -14 -5 -18 -1 -18 18 0 21 -5 25 -30 25 -16 0
-30 -4 -30 -9 0 -19 -205 -135 -226 -127 -8 3 -23 -9 -39 -32 -14 -20 -25 -30
-25 -21 0 8 4 19 9 25 6 5 13 39 17 75 6 64 6 68 -23 98 -17 17 -38 31 -48 31
-14 0 -15 3 -5 15 17 20 108 45 172 46 29 0 76 4 103 9 75 12 165 1 195 -24z
m-1258 10 c24 -8 72 -17 108 -20 79 -8 156 -28 172 -44 9 -9 5 -12 -18 -12
-53 0 -119 -87 -115 -152 1 -15 -3 -29 -9 -33 -10 -6 -21 29 -17 60 2 16 -4
20 -30 21 -29 1 -33 -2 -33 -25 l-1 -26 -18 22 c-38 46 -141 73 -180 49 -12
-8 -13 0 -8 48 6 62 16 80 62 108 36 22 34 21 87 4z m1263 -146 c3 -5 -1 -10
-9 -10 -9 0 -16 5 -16 10 0 6 4 10 9 10 6 0 13 -4 16 -10z m-110 -86 c-42 -64
-168 -174 -183 -160 -7 8 35 47 104 96 22 15 51 44 64 64 28 40 42 40 15 0z
m-1188 -46 c-3 -8 -6 -5 -6 6 -1 11 2 17 5 13 3 -3 4 -12 1 -19z m640 -45 c-4
-17 -4 -17 -12 0 -4 9 -4 25 0 35 8 16 8 16 12 0 3 -10 3 -26 0 -35z m-581 0
c-7 -7 -26 7 -26 19 0 6 6 6 15 -2 9 -7 13 -15 11 -17z m127 -28 c21 -26 23
-32 10 -29 -10 3 -28 20 -40 39 -28 42 -8 35 30 -10z m47 -94 c0 -10 -48 -22
-100 -24 -44 -2 -50 -20 -10 -30 21 -5 40 -3 58 7 15 7 50 19 79 26 50 11 73
8 73 -10 0 -12 -58 -30 -96 -30 -19 0 -34 -4 -34 -10 0 -5 10 -10 23 -10 l22
0 -3 -249 c-3 -242 -3 -249 -22 -244 -11 3 -20 9 -20 13 0 16 -88 19 -146 5
-32 -8 -63 -14 -69 -15 -6 0 -10 99 -10 278 l0 277 45 -3 c25 -1 70 4 100 12
65 16 110 19 110 7z m777 -7 c-3 -3 -12 -4 -19 -1 -8 3 -5 6 6 6 11 1 17 -2
13 -5z m-414 -31 c-7 -2 -19 -2 -25 0 -7 3 -2 5 12 5 14 0 19 -2 13 -5z m673
-88 c14 -13 14 -15 1 -15 -9 0 -21 -2 -29 -3 -7 -2 -10 -2 -5 0 4 3 7 11 7 19
0 18 8 18 26 -1z m-873 -84 l22 -23 -22 -15 c-13 -9 -23 -25 -23 -37 -1 -16
-4 -12 -16 14 -8 19 -22 39 -30 43 -13 7 -11 13 10 34 14 14 27 33 27 42 1 9
4 5 6 -9 3 -14 14 -36 26 -49z m306 -250 c-12 -19 -39 -18 -39 1 0 6 7 7 16 4
13 -5 15 -1 10 20 -6 24 -6 25 9 11 13 -13 13 -20 4 -36z m-751 -32 c-18 -11
-32 6 -24 28 7 17 8 17 22 -1 11 -16 11 -21 2 -27z m-532 -18 c17 -10 70 -57
118 -104 l88 -85 -49 -27 c-26 -16 -59 -35 -72 -43 -23 -14 -26 -12 -75 41
-68 73 -86 76 -142 25 -31 -28 -44 -36 -44 -24 0 16 6 22 68 79 31 27 34 57 6
57 -11 0 -11 6 0 33 7 17 16 40 19 50 8 22 44 22 83 -2z m944 -143 c0 -6 7
-19 15 -28 13 -15 12 -19 -10 -40 -21 -20 -25 -21 -25 -6 0 9 5 26 10 37 7 13
7 19 0 19 -5 0 -10 9 -10 21 0 11 5 17 10 14 6 -3 10 -11 10 -17z m-154 -135
c20 -4 21 -11 19 -115 -1 -93 -4 -112 -17 -114 -8 -1 -25 -5 -36 -8 -14 -5
-27 -1 -39 11 -10 10 -30 24 -43 31 -14 7 -38 32 -55 55 -24 34 -29 50 -27 84
3 44 13 52 67 59 28 3 29 3 11 -11 -15 -12 -16 -15 -5 -15 12 0 15 -13 14 -67
-1 -70 2 -93 14 -93 4 0 8 35 9 77 1 48 7 80 15 85 9 6 8 8 -2 8 -11 0 -9 4 5
15 10 8 26 12 34 8 8 -3 24 -8 36 -10z m-766 -3 c0 -6 -12 -15 -26 -21 -15 -5
-60 -43 -100 -84 -58 -59 -80 -75 -103 -75 -27 0 -23 6 69 95 81 78 103 95
129 95 17 0 31 -5 31 -10z m-281 -79 c-24 -39 -46 -71 -49 -71 -3 0 -16 9 -30
20 -32 25 -21 45 43 80 26 14 52 31 59 38 27 27 17 -1 -23 -67z m1096 -120 c3
-5 1 -12 -5 -16 -5 -3 -10 1 -10 9 0 18 6 21 15 7z m325 -42 c0 -5 -6 -9 -14
-9 -15 0 -28 24 -19 34 7 7 33 -13 33 -25z m-1346 -90 c14 -17 15 -23 5 -30
-15 -9 -35 4 -50 33 -14 27 21 24 45 -3z m66 -6 c0 -5 -4 -14 -9 -21 -6 -10
-10 -9 -14 7 -3 14 0 21 9 21 8 0 14 -3 14 -7z m-729 -61 c-5 -9 -19 -43 -31
-74 -23 -60 -26 -63 -48 -49 -11 7 -10 17 8 52 32 63 60 100 71 94 5 -4 5 -13
0 -23z m706 11 c2 -6 -4 -13 -13 -17 -21 -8 -26 -3 -18 18 7 18 25 17 31 -1z
m-478 -128 c-9 -8 -59 35 -59 51 0 10 11 5 32 -15 18 -17 30 -33 27 -36z
m-139 -5 c0 -5 -2 -10 -4 -10 -3 0 -8 5 -11 10 -3 6 -1 10 4 10 6 0 11 -4 11
-10z m50 -95 c7 -8 8 -15 2 -15 -5 0 -15 7 -22 15 -7 8 -8 15 -2 15 5 0 15 -7
22 -15z m105 -87 c-10 -29 -24 -62 -31 -72 -12 -18 -13 -18 -19 7 -4 16 -1 38
9 58 9 18 16 37 16 44 0 19 23 36 34 25 7 -7 4 -28 -9 -62z"/>
<path d="M3646 2213 c-6 -14 -5 -15 5 -6 7 7 10 15 7 18 -3 3 -9 -2 -12 -12z"/>
<path d="M4624 2385 c-4 -8 -10 -12 -15 -9 -5 3 -9 -15 -9 -40 0 -25 4 -46 8
-46 5 0 14 -10 20 -22 9 -19 11 -9 11 55 1 75 -4 93 -15 62z"/>
<path d="M2673 2341 c-7 -10 -9 -22 -6 -25 13 -12 21 -5 21 19 0 30 0 30 -15
6z"/>
<path d="M2681 2259 c1 -24 4 -35 6 -24 3 11 9 25 14 31 6 7 4 16 -6 24 -13
11 -15 7 -14 -31z"/>
<path d="M2681 2184 c0 -11 3 -14 6 -6 3 7 2 16 -1 19 -3 4 -6 -2 -5 -13z"/>
<path d="M2873 2120 c0 -25 2 -35 4 -22 2 12 2 32 0 45 -2 12 -4 2 -4 -23z"/>
<path d="M1056 2049 c-36 -60 -39 -83 -11 -73 8 4 12 11 9 16 -4 5 3 23 15 39
12 16 26 40 31 54 17 46 -7 26 -44 -36z"/>
<path d="M2662 2060 c0 -14 2 -19 5 -12 2 6 2 18 0 25 -3 6 -5 1 -5 -13z"/>
<path d="M1110 1980 c0 -5 5 -10 11 -10 6 0 25 -11 41 -25 42 -35 51 -20 10
16 -32 29 -62 38 -62 19z"/>
<path d="M2350 1921 c-45 -28 -54 -51 -28 -76 7 -7 8 -3 4 12 -7 23 17 45 41
36 11 -4 43 33 43 49 0 13 -12 8 -60 -21z"/>
<path d="M791 1924 c0 -11 3 -14 6 -6 3 7 2 16 -1 19 -3 4 -6 -2 -5 -13z"/>
<path d="M1234 1894 c3 -9 9 -27 12 -40 7 -26 24 -33 24 -10 0 10 7 12 22 8
18 -4 16 1 -13 26 -40 35 -54 40 -45 16z"/>
<path d="M1180 1868 c-14 -4 -44 -13 -67 -18 -28 -7 -43 -16 -43 -26 0 -11 5
-14 17 -9 10 3 40 11 68 17 27 5 54 14 60 19 15 15 -8 27 -35 17z"/>
<path d="M821 1834 c0 -11 3 -14 6 -6 3 7 2 16 -1 19 -3 4 -6 -2 -5 -13z"/>
<path d="M810 1790 c-8 -5 -31 -10 -50 -11 l-35 -1 35 -8 c19 -5 47 -6 63 -3
23 5 27 2 28 -18 0 -13 3 -18 6 -11 5 14 -15 62 -26 62 -3 0 -13 -5 -21 -10z"/>
<path d="M1215 1680 c-21 -50 -44 -94 -52 -99 -12 -6 -8 -20 21 -77 37 -71 71
-103 136 -125 19 -7 44 -18 55 -26 16 -11 17 -13 3 -13 -20 0 -111 24 -153 40
-16 6 -66 36 -111 66 -67 45 -86 54 -108 48 -37 -9 -30 -38 9 -42 17 -2 34
-10 38 -18 6 -11 12 -12 21 -5 9 7 26 0 62 -25 71 -52 149 -84 203 -84 64 0
176 -18 228 -35 24 -8 77 -15 118 -16 71 -1 75 -2 75 -24 0 -12 6 -27 13 -33
10 -9 13 1 15 45 4 105 42 217 64 195 6 -6 11 -23 12 -38 1 -21 7 -29 29 -35
22 -6 27 -4 27 11 0 11 -7 23 -15 28 -13 7 -14 14 -5 37 6 16 9 40 5 52 -6 25
10 63 31 76 16 9 18 27 4 27 -15 0 -51 -37 -84 -87 -20 -30 -41 -47 -73 -59
-43 -17 -50 -17 -137 0 -104 20 -204 64 -293 129 -81 60 -107 98 -99 142 4 19
5 35 3 35 -2 0 -21 -41 -42 -90z"/>
<path d="M678 1753 c7 -3 16 -2 19 1 4 3 -2 6 -13 5 -11 0 -14 -3 -6 -6z"/>
<path d="M618 1743 c6 -2 18 -2 25 0 6 3 1 5 -13 5 -14 0 -19 -2 -12 -5z"/>
<path d="M1286 1730 c10 -34 33 -69 55 -81 26 -13 25 7 -1 35 -10 11 -29 32
-40 46 l-21 25 7 -25z"/>
<path d="M568 1723 c7 -3 16 -2 19 1 4 3 -2 6 -13 5 -11 0 -14 -3 -6 -6z"/>
<path d="M495 1705 c-29 -13 -27 -14 40 -13 39 0 59 3 45 5 -14 3 -29 9 -34
14 -12 11 -13 11 -51 -6z"/>
<path d="M870 1715 c0 -10 40 -75 47 -75 2 0 -6 17 -18 38 -28 45 -29 47 -29
37z"/>
<path d="M1599 1675 c23 -14 45 -25 47 -25 2 0 30 -13 63 -29 55 -26 60 -27
73 -11 17 20 12 22 -123 64 -106 32 -116 32 -60 1z"/>
<path d="M180 1662 c0 -4 16 -6 35 -4 19 2 35 6 35 8 0 2 -16 4 -35 4 -19 0
-35 -4 -35 -8z"/>
<path d="M30 1624 l-35 -14 44 3 c25 1 46 8 49 15 5 15 -12 14 -58 -4z"/>
<path d="M2352 1616 c-13 -12 -51 -28 -85 -37 l-62 -17 72 -3 c39 -2 69 -1 67
2 -2 4 6 18 17 33 27 34 21 48 -9 22z"/>
<path d="M930 1615 c0 -14 67 -91 73 -85 3 3 -12 25 -34 50 -21 25 -38 41 -39
35z"/>
<path d="M1790 1601 c0 -12 39 -25 47 -17 4 3 -1 6 -10 6 -9 0 -17 5 -17 10 0
6 -4 10 -10 10 -5 0 -10 -4 -10 -9z"/>
<path d="M1970 1479 c0 -5 5 -7 10 -4 6 3 10 8 10 11 0 2 -4 4 -10 4 -5 0 -10
-5 -10 -11z"/>
<path d="M1872 1313 c-16 -30 -24 -100 -17 -143 10 -58 25 -49 18 10 -3 29 0
69 7 95 13 48 9 70 -8 38z"/>
<path d="M635 1100 c-3 -5 -16 -10 -27 -10 -11 0 -75 -19 -142 -42 -104 -36
-132 -41 -200 -40 -44 0 -98 6 -121 12 -36 10 -47 9 -93 -11 l-52 -23 0 -493
0 -494 123 3 c118 3 122 4 125 26 3 17 10 22 35 22 21 0 36 7 45 20 7 11 23
20 36 20 17 0 26 7 30 25 4 14 4 29 2 34 -5 8 -25 96 -52 231 -21 108 -28 244
-16 328 12 82 63 196 115 253 32 35 143 110 182 122 14 5 52 -8 113 -38 101
-49 110 -52 92 -30 -7 8 -18 15 -25 15 -7 0 -28 14 -46 31 -44 41 -110 62
-124 39z"/>
<path d="M4433 882 c18 -20 23 -72 8 -72 -5 0 -11 6 -14 13 -8 22 2 -17 14
-60 11 -35 10 -45 -5 -67 l-17 -27 -37 22 c-20 12 -46 31 -56 43 l-19 21 6
-25 c4 -14 7 -29 7 -33 0 -5 6 -7 13 -4 6 2 23 -6 37 -18 44 -40 67 -41 86 -4
10 20 14 44 11 65 -3 18 -1 49 4 69 9 30 7 40 -11 65 -12 17 -26 30 -32 30 -6
0 -4 -8 5 -18z"/>
<path d="M4100 781 c0 -5 14 -14 30 -20 18 -6 28 -6 25 -1 -4 6 -13 10 -21 10
-8 0 -14 5 -14 10 0 6 -4 10 -10 10 -5 0 -10 -4 -10 -9z"/>
<path d="M2175 740 c-3 -5 -1 -10 4 -10 6 0 11 5 11 10 0 6 -2 10 -4 10 -3 0
-8 -4 -11 -10z"/>
<path d="M4165 730 c15 -24 142 -110 162 -110 24 0 31 23 13 50 -8 12 -10 12
-16 -3 -10 -27 -33 -20 -92 28 -51 42 -81 58 -67 35z"/>
<path d="M4070 720 c0 -5 9 -14 20 -20 11 -6 20 -7 20 -3 0 5 -9 14 -20 21
-11 7 -20 8 -20 2z"/>
<path d="M2855 670 c3 -5 15 -10 26 -10 10 0 19 -7 19 -15 0 -8 -3 -15 -8 -15
-8 0 -8 0 -73 -132 -72 -145 -122 -292 -135 -396 -4 -29 -11 -55 -15 -58 -5
-3 -9 -15 -9 -27 1 -18 4 -15 15 12 8 18 15 39 15 46 0 8 4 25 10 39 l10 26
57 -43 c122 -92 133 -97 232 -97 l89 0 6 34 c5 24 24 50 68 92 l62 59 9 -40
c5 -22 11 -64 14 -92 3 -29 9 -53 14 -53 6 0 7 21 4 47 -2 27 -10 104 -15 173
-6 69 -15 143 -20 165 -5 22 -10 60 -11 85 0 25 -7 61 -14 80 l-14 35 5 -40
c6 -51 -7 -127 -24 -133 -6 -2 -12 3 -12 12 0 8 -5 18 -12 22 -8 5 -10 -6 -5
-43 5 -46 2 -57 -29 -110 -58 -98 -129 -148 -122 -85 2 21 14 33 56 55 28 16
52 34 52 42 0 7 -21 24 -47 36 -80 38 -224 108 -233 114 -10 6 53 122 91 167
l26 32 69 -19 c45 -13 102 -19 164 -20 52 0 106 -4 120 -9 14 -5 113 -10 220
-10 107 -1 203 -5 213 -10 9 -4 17 -4 17 0 -1 13 -158 89 -166 81 -4 -4 1 -9
10 -13 34 -13 13 -20 -91 -32 -70 -7 -124 -8 -153 -2 -25 5 -49 9 -53 10 -5 0
-5 5 -2 10 3 6 24 10 46 10 21 0 39 5 39 10 0 16 -70 12 -151 -9 l-75 -19 -99
24 c-104 24 -201 32 -190 14z m16 -502 c65 -43 82 -58 73 -67 -3 -3 -8 -1 -12
5 -4 6 -25 23 -47 37 -49 32 -92 66 -84 67 4 0 35 -19 70 -42z"/>
<path d="M3060 557 c0 -8 6 -20 14 -26 12 -10 13 -8 9 9 -7 25 -23 37 -23 17z"/>
<path d="M3618 555 c-3 -5 2 -37 12 -70 9 -33 26 -89 36 -125 10 -36 24 -76
31 -90 7 -14 13 -32 13 -40 0 -9 4 -20 8 -25 5 -6 26 -54 46 -107 23 -59 44
-98 52 -98 20 0 18 6 -20 75 -42 77 -54 125 -31 125 22 0 88 -35 105 -55 7 -9
23 -21 34 -27 17 -9 16 -5 -6 18 -27 29 -70 55 -120 73 -15 6 -34 21 -42 33
-19 29 -96 241 -105 288 -4 19 -9 31 -13 25z"/>
<path d="M3979 495 c21 -19 44 -35 51 -35 6 0 -7 16 -30 35 -23 19 -46 35 -51
35 -5 0 8 -16 30 -35z"/>
<path d="M4663 375 c0 -22 2 -30 4 -17 2 12 2 30 0 40 -3 9 -5 -1 -4 -23z"/>
<path d="M4548 332 c-29 -31 -78 -113 -78 -130 0 -28 19 -8 43 46 14 31 36 67
47 80 12 13 20 25 18 28 -3 2 -16 -9 -30 -24z"/>
<path d="M4677 282 c-10 -15 1 -58 18 -72 14 -11 13 -5 -9 75 -1 5 -6 4 -9 -3z"/>
<path d="M1226 180 c13 -46 54 -130 64 -130 16 0 12 10 -31 85 -22 39 -37 59
-33 45z"/>
<path d="M4452 155 c0 -16 2 -22 5 -12 2 9 2 23 0 30 -3 6 -5 -1 -5 -18z"/>
<path d="M4451 87 c-1 -31 24 -87 39 -87 5 0 1 15 -9 34 -11 18 -21 44 -24 57
-4 22 -4 21 -6 -4z"/>
<path d="M3960 38 c0 -9 5 -20 10 -23 13 -8 13 5 0 25 -8 13 -10 13 -10 -2z"/>
</g>
</svg>
